<?xml version="1.0" standalone="no"?>
<!DOCTYPE svg PUBLIC "-//W3C//DTD SVG 20010904//EN"
 "http://www.w3.org/TR/2001/REC-SVG-20010904/DTD/svg10.dtd">
<svg version="1.0" xmlns="http://www.w3.org/2000/svg"
 width="112.000000pt" height="112.000000pt" viewBox="0 0 112.000000 112.000000"
 preserveAspectRatio="xMidYMid meet">
<metadata>
Created by potrace 1.14, written by Peter Selinger 2001-2017
</metadata>
<g transform="translate(0.000000,112.000000) scale(0.100000,-0.100000)"
fill="#000000" stroke="none">
<path d="M429 1009 c-81 -20 -132 -46 -191 -98 -212 -187 -223 -518 -24 -717
112 -111 244 -162 391 -150 96 7 159 28 232 76 221 145 293 413 175 649 -35
71 -147 185 -204 208 -24 10 -46 17 -50 15 -5 -1 -8 2 -8 7 0 25 -232 33 -321
10z"/>
</g>
</svg>
